# xmcd CD database file generated by Grip 3.3.1
# 
# Track frame offsets:
#       182
#       10630
#       24362
#       34817
#       47497
#       58682
#       71602
#       82985
#       96955
#       109035
#       120857
#       131595
#       145702
#       159397
#       172210
#       186515
#       197460
#       209587
#       220317
#       232037
#       241352
#       255480
#       267880
#       280320
#       294490
#       309455
# 
# Disc length: 4333 seconds
# 
# Revision: 4
# Processed by: cddbd v1.5.1PL2 Copyright (c) Steve Scherf et al.
# Submitted via: Grip 3.3.1
# 
DISCID=7410eb1a
DTITLE=Ray Charles - Blues Is My Middle Name
DYEAR=1900
DGENRE=Blues
TTITLE0=Goin' Down Slow
TTITLE1=Alone In The City
TTITLE2=Now She's Gone
TTITLE3=Rockin' Chair Blues
TTITLE4=A Sentimental Blues
TTITLE5=Can Anyone Ask For More
TTITLE6=Let's Have A Ball
TTITLE7=This Love Of Mine
TTITLE8=Can't You See Darling
TTITLE9=If I Give Mou My Love
TTITLE10=Sitting On Top Of The World
TTITLE11=Kiss Me Baby
TTITLE12=I'm Gonna Drown Myself
TTITLE13=Snow Is Fallin'
TTITLE14=Blues Is My Middle Name
TTITLE15=I Wonder Who's Kissing Her Now
TTITLE16=See See Rider
TTITLE17=Hey Now
TTITLE18=Tell Me Baby
TTITLE19=All To Myself Alone
TTITLE20=Baby Let Me Hold Your Hand
TTITLE21=I Won't Let You Go
TTITLE22=I'm Glad For Your Sake
TTITLE23=Walkin' And Talkin'
TTITLE24=I'm Wonderin' And Wonderin'
TTITLE25=I Found My Baby There
EXTD=ID3G: 0
EXTT0=
EXTT1=
EXTT2=
EXTT3=
EXTT4=
EXTT5=
EXTT6=
EXTT7=
EXTT8=
EXTT9=
EXTT10=
EXTT11=
EXTT12=
EXTT13=
EXTT14=
EXTT15=
EXTT16=
EXTT17=
EXTT18=
EXTT19=
EXTT20=
EXTT21=
EXTT22=
EXTT23=
EXTT24=
EXTT25=
PLAYORDER=
